<svg xmlns="http://www.w3.org/2000/svg" width="16" height="16"><path fill="#FE3E57" d="M15.375 0H.625A.625.625 0 000 .625V13c0 .345.28.624.625.624h5.53l1.317 2.085a.625.625 0 001.056 0l1.316-2.085h5.531A.624.624 0 0016 13V.625A.625.625 0 0015.375 0zm-.625 12.375H9.5a.628.628 0 00-.529.291L8 14.204l-.972-1.538a.625.625 0 00-.528-.291H1.25V1.25h13.5v11.125zM7.219 6.812a.78.78 0 111.562 0 .78.78 0 01-1.562 0zm-3.125 0a.78.78 0 111.562 0 .78.78 0 01-1.562 0zm6.25 0a.78.78 0 111.562 0 .78.78 0 01-1.562 0z"/></svg>