<svg xmlns="http://www.w3.org/2000/svg" width="1670" height="571"><defs><filter id="mmvwa" width="88" height="93" x="21" y="50" filterUnits="userSpaceOnUse"><feOffset dy="10" in="SourceGraphic" result="FeOffset1030Out"/><feGaussianBlur in="FeOffset1030Out" result="FeGaussianBlur1031Out" stdDeviation="4 4"/></filter><filter id="mmvwc" width="86" height="96" x="621" y="387" filterUnits="userSpaceOnUse"><feOffset dy="10" in="SourceGraphic" result="FeOffset1046Out"/><feGaussianBlur in="FeOffset1046Out" result="FeGaussianBlur1047Out" stdDeviation="4 4"/></filter><filter id="mmvwe" width="109" height="127" x="-11" y="455" filterUnits="userSpaceOnUse"><feOffset dy="5" in="SourceGraphic" result="FeOffset1062Out"/><feGaussianBlur in="FeOffset1062Out" result="FeGaussianBlur1063Out" stdDeviation="2 2"/></filter><filter id="mmvwg" width="160" height="175" x="1304" y="-29" filterUnits="userSpaceOnUse"><feOffset dy="15" in="SourceGraphic" result="FeOffset1078Out"/><feGaussianBlur in="FeOffset1078Out" result="FeGaussianBlur1079Out" stdDeviation="8 8"/></filter><filter id="mmvwj" width="67" height="72" x="1616" y="444" filterUnits="userSpaceOnUse"><feOffset dy="5" in="SourceGraphic" result="FeOffset1109Out"/><feGaussianBlur in="FeOffset1109Out" result="FeGaussianBlur1110Out" stdDeviation="4 4"/></filter><mask id="mmvwb" width="2" height="2" x="-1" y="-1"><path fill="#fff" d="M41 70h48v43H41z"/><path d="M88.996 70l-20.094 42.986L40.984 74.43z"/></mask><mask id="mmvwd" width="2" height="2" x="-1" y="-1"><path fill="#fff" d="M641 407h46v46h-46z"/><path d="M687 430c0 12.702-10.298 23-23 23-12.703 0-23-10.298-23-23 0-12.703 10.297-23 23-23 12.702 0 23 10.297 23 23zm-8.689 0c0-7.904-6.407-14.311-14.311-14.311s-14.311 6.407-14.311 14.31c0 7.904 6.407 14.312 14.31 14.312 7.905 0 14.312-6.408 14.312-14.312z"/></mask><mask id="mmvwf" width="2" height="2" x="-1" y="-1"><path fill="#fff" d="M4 470h79v92H4z"/><path d="M68.329 561.997l-2.066-.526c.033-.13 3.192-13.05-3.999-23.588-5.039-7.384-13.906-11.919-26.356-13.475-12.626-1.58-21.672-6.36-26.885-14.206-8.057-12.127-4.02-27.028-3.843-27.656l2.052.574c-.04.145-3.944 14.615 3.575 25.915 4.856 7.299 13.39 11.759 25.366 13.257 13.093 1.637 22.468 6.486 27.864 14.408 7.729 11.347 4.436 24.733 4.292 25.297zm13.86-12.545l-2.066-.527c.033-.129 3.191-13.049-4-23.587-5.038-7.385-13.906-11.919-26.355-13.476-12.627-1.58-21.672-6.359-26.886-14.206-8.057-12.127-4.019-27.028-3.843-27.656l2.053.574c-.04.146-3.944 14.615 3.575 25.916 4.856 7.299 13.39 11.758 25.365 13.256 13.094 1.638 22.469 6.486 27.865 14.409 7.729 11.346 4.435 24.733 4.291 25.297z"/></mask><mask id="mmvwh" width="2" height="2" x="-1" y="-1"><path fill="#fff" d="M1334 1h100v100h-100z"/><path d="M1384 1c27.614 0 50 22.386 50 50s-22.386 50-50 50-50-22.386-50-50 22.386-50 50-50z"/></mask><mask id="mmvwk" width="2" height="2" x="-1" y="-1"><path fill="#fff" d="M1636 464h27v27h-27z"/><path d="M1663 469.447l-5.454-5.454-8.05 8.05-8.049-8.05-5.454 5.454 8.05 8.05-8.05 8.05 5.455 5.453 8.049-8.05 8.049 8.05 5.454-5.454-8.049-8.05z"/></mask><linearGradient id="mmvwi" x1="1384" x2="1384" y1="101" y2="1" gradientUnits="userSpaceOnUse"><stop offset="0" stop-color="#ffc35b"/><stop offset="1" stop-color="#ffdc9e"/></linearGradient></defs><path fill="#ccccce" d="M1499.001 252.159c0-1.103.922-1.997 2.06-1.997s2.06.894 2.06 1.997c0 1.102-.922 1.996-2.06 1.996s-2.06-.894-2.06-1.996zm4.12 10.98c0 1.103-.922 1.997-2.06 1.997s-2.06-.894-2.06-1.997c0-1.102.922-1.996 2.06-1.996s2.06.894 2.06 1.996zm0 10.98c0 1.103-.922 1.997-2.06 1.997s-2.06-.894-2.06-1.996c0-1.103.922-1.997 2.06-1.997s2.06.894 2.06 1.997zm0 10.981c0 1.102-.922 1.997-2.06 1.997s-2.06-.895-2.06-1.997.922-1.997 2.06-1.997 2.06.895 2.06 1.997zm0 10.98c0 1.103-.922 1.997-2.06 1.997s-2.06-.894-2.06-1.996c0-1.103.922-1.997 2.06-1.997s2.06.894 2.06 1.997zm0 10.98c0 1.104-.922 1.998-2.06 1.998s-2.06-.894-2.06-1.997c0-1.103.922-1.996 2.06-1.996s2.06.893 2.06 1.996zm0 10.982c0 1.102-.922 1.996-2.06 1.996s-2.06-.894-2.06-1.996c0-1.103.922-1.997 2.06-1.997s2.06.894 2.06 1.997zm0 10.98c0 1.103-.922 1.996-2.06 1.996s-2.06-.893-2.06-1.996.922-1.996 2.06-1.996 2.06.893 2.06 1.996zm0 10.98c0 1.103-.922 1.997-2.06 1.997s-2.06-.894-2.06-1.997c0-1.102.922-1.996 2.06-1.996s2.06.894 2.06 1.996zm4.763-121.007c0-1.102.922-1.996 2.06-1.996s2.06.894 2.06 1.996c0 1.103-.922 1.997-2.06 1.997s-2.06-.894-2.06-1.997zm4.12 10.98c0 1.104-.922 1.997-2.06 1.997s-2.06-.893-2.06-1.996.922-1.997 2.06-1.997 2.06.894 2.06 1.997zm0 10.981c0 1.103-.922 1.996-2.06 1.996s-2.06-.893-2.06-1.996c0-1.102.922-1.996 2.06-1.996s2.06.894 2.06 1.996zm0 10.98c0 1.103-.922 1.997-2.06 1.997s-2.06-.894-2.06-1.996c0-1.103.922-1.997 2.06-1.997s2.06.894 2.06 1.997zm0 10.982c0 1.102-.922 1.996-2.06 1.996s-2.06-.894-2.06-1.996c0-1.103.922-1.997 2.06-1.997s2.06.894 2.06 1.997zm0 10.98c0 1.103-.922 1.996-2.06 1.996s-2.06-.893-2.06-1.996.922-1.997 2.06-1.997 2.06.894 2.06 1.997zm0 10.98c0 1.103-.922 1.997-2.06 1.997s-2.06-.894-2.06-1.997c0-1.102.922-1.996 2.06-1.996s2.06.894 2.06 1.996zm0 10.98c0 1.103-.922 1.997-2.06 1.997s-2.06-.894-2.06-1.996c0-1.103.922-1.997 2.06-1.997s2.06.894 2.06 1.997zm0 10.981c0 1.103-.922 1.997-2.06 1.997s-2.06-.894-2.06-1.997c0-1.102.922-1.996 2.06-1.996s2.06.894 2.06 1.996z"/><g filter="url(#mmvwa)"><path fill="none" d="M88.996 70l-20.094 42.986L40.984 74.43z" mask="url(&quot;#mmvwb&quot;)"/><path fill="#4dcaff" fill-opacity=".3" d="M88.996 70l-20.094 42.986L40.984 74.43z"/></g><path fill="#34c3ff" d="M88.996 70l-20.094 42.986L40.984 74.43z"/><g filter="url(#mmvwc)"><path fill="none" d="M687 430c0 12.702-10.298 23-23 23-12.703 0-23-10.298-23-23 0-12.703 10.297-23 23-23 12.702 0 23 10.297 23 23zm-8.689 0c0-7.904-6.407-14.311-14.311-14.311s-14.311 6.407-14.311 14.31c0 7.904 6.407 14.312 14.31 14.312 7.905 0 14.312-6.408 14.312-14.312z" mask="url(&quot;#mmvwd&quot;)"/><path fill="#4dcaff" fill-opacity=".3" d="M687 430c0 12.702-10.298 23-23 23-12.703 0-23-10.298-23-23 0-12.703 10.297-23 23-23 12.702 0 23 10.297 23 23zm-8.689 0c0-7.904-6.407-14.311-14.311-14.311s-14.311 6.407-14.311 14.31c0 7.904 6.407 14.312 14.31 14.312 7.905 0 14.312-6.408 14.312-14.312z"/></g><path fill="#34c3ff" d="M687 430c0 12.702-10.298 23-23 23-12.703 0-23-10.298-23-23 0-12.703 10.297-23 23-23 12.702 0 23 10.297 23 23zm-8.689 0c0-7.904-6.407-14.311-14.311-14.311s-14.311 6.407-14.311 14.31c0 7.904 6.407 14.312 14.31 14.312 7.905 0 14.312-6.408 14.312-14.312z"/><g filter="url(#mmvwe)"><path fill="none" d="M68.329 561.997l-2.066-.526c.033-.13 3.192-13.05-3.999-23.588-5.039-7.384-13.906-11.919-26.356-13.475-12.626-1.58-21.672-6.36-26.885-14.206-8.057-12.127-4.02-27.028-3.843-27.656l2.052.574c-.04.145-3.944 14.615 3.575 25.915 4.856 7.299 13.39 11.759 25.366 13.257 13.093 1.637 22.468 6.486 27.864 14.408 7.729 11.347 4.436 24.733 4.292 25.297zm13.86-12.545l-2.066-.527c.033-.129 3.191-13.049-4-23.587-5.038-7.385-13.906-11.919-26.355-13.476-12.627-1.58-21.672-6.359-26.886-14.206-8.057-12.127-4.019-27.028-3.843-27.656l2.053.574c-.04.146-3.944 14.615 3.575 25.916 4.856 7.299 13.39 11.758 25.365 13.256 13.094 1.638 22.469 6.486 27.865 14.409 7.729 11.346 4.435 24.733 4.291 25.297z" mask="url(&quot;#mmvwf&quot;)"/><path fill="#fe3e57" fill-opacity=".4" d="M68.329 561.997l-2.066-.526c.033-.13 3.192-13.05-3.999-23.588-5.039-7.384-13.906-11.919-26.356-13.475-12.626-1.58-21.672-6.36-26.885-14.206-8.057-12.127-4.02-27.028-3.843-27.656l2.052.574c-.04.145-3.944 14.615 3.575 25.915 4.856 7.299 13.39 11.759 25.366 13.257 13.093 1.637 22.468 6.486 27.864 14.408 7.729 11.347 4.436 24.733 4.292 25.297zm13.86-12.545l-2.066-.527c.033-.129 3.191-13.049-4-23.587-5.038-7.385-13.906-11.919-26.355-13.476-12.627-1.58-21.672-6.359-26.886-14.206-8.057-12.127-4.019-27.028-3.843-27.656l2.053.574c-.04.146-3.944 14.615 3.575 25.916 4.856 7.299 13.39 11.758 25.365 13.256 13.094 1.638 22.469 6.486 27.865 14.409 7.729 11.346 4.435 24.733 4.291 25.297z"/></g><path fill="#fe3e57" d="M68.329 561.997l-2.066-.526c.033-.13 3.192-13.05-3.999-23.588-5.039-7.384-13.906-11.919-26.356-13.475-12.626-1.58-21.672-6.36-26.885-14.206-8.057-12.127-4.02-27.028-3.843-27.656l2.052.574c-.04.145-3.944 14.615 3.575 25.915 4.856 7.299 13.39 11.759 25.366 13.257 13.093 1.637 22.468 6.486 27.864 14.408 7.729 11.347 4.436 24.733 4.292 25.297zm13.86-12.545l-2.066-.527c.033-.129 3.191-13.049-4-23.587-5.038-7.385-13.906-11.919-26.355-13.476-12.627-1.58-21.672-6.359-26.886-14.206-8.057-12.127-4.019-27.028-3.843-27.656l2.053.574c-.04.146-3.944 14.615 3.575 25.916 4.856 7.299 13.39 11.758 25.365 13.256 13.094 1.638 22.469 6.486 27.865 14.409 7.729 11.346 4.435 24.733 4.291 25.297z"/><g filter="url(#mmvwg)"><path fill="none" d="M1384 1c27.614 0 50 22.386 50 50s-22.386 50-50 50-50-22.386-50-50 22.386-50 50-50z" mask="url(&quot;#mmvwh&quot;)"/><path fill="#ffc55f" fill-opacity=".3" d="M1384 1c27.614 0 50 22.386 50 50s-22.386 50-50 50-50-22.386-50-50 22.386-50 50-50z"/></g><path fill="url(#mmvwi)" d="M1384 1c27.614 0 50 22.386 50 50s-22.386 50-50 50-50-22.386-50-50 22.386-50 50-50z"/><g filter="url(#mmvwj)"><path fill="none" d="M1663 469.447l-5.454-5.454-8.05 8.05-8.049-8.05-5.454 5.454 8.05 8.05-8.05 8.05 5.455 5.453 8.049-8.05 8.049 8.05 5.454-5.454-8.049-8.05z" mask="url(&quot;#mmvwk&quot;)"/><path fill="#fe3e57" fill-opacity=".3" d="M1663 469.447l-5.454-5.454-8.05 8.05-8.049-8.05-5.454 5.454 8.05 8.05-8.05 8.05 5.455 5.453 8.049-8.05 8.049 8.05 5.454-5.454-8.049-8.05z"/></g><path fill="#fe3e57" d="M1663 469.447l-5.454-5.454-8.05 8.05-8.049-8.05-5.454 5.454 8.05 8.05-8.05 8.05 5.455 5.453 8.049-8.05 8.049 8.05 5.454-5.454-8.049-8.05z"/></svg>