<svg width="1930" height="865" fill="none" xmlns="http://www.w3.org/2000/svg"><g clip-path="url(#clip0)"><path d="M1934.97 129.647s-40.74 133.564-63.42 183.246c-22.68 49.683-53.73 87.51-107.62 128.637-53.89 41.127-79.31 134.63 10.57 247.564 89.87 112.934 156.28 145.323 172 156.548" stroke="#ECECEC" stroke-width="2" stroke-miterlimit="20"/><path d="M1937.86 1.01s-27.49-1.026-61.5 126.21c-34.02 127.235-50.42 162.541-75.92 208.731s-52.78 75.047-89.37 100.724c-36.58 25.678-96.74 100.68-7.68 231.788 89.05 131.11 249.94 230.417 276.75 185.674" stroke="#ECECEC" stroke-width="2" stroke-miterlimit="20"/><g filter="url(#filter0_f)"><path d="M1801.48 556c9.68 0 17.52 8.059 17.52 18s-7.84 18-17.52 18c-9.67 0-17.51-8.059-17.51-18s7.84-18 17.51-18z" fill="#FE3E57" fill-opacity=".4"/></g><path d="M1801.48 556c9.68 0 17.52 8.059 17.52 18s-7.84 18-17.52 18c-9.67 0-17.51-8.059-17.51-18s7.84-18 17.51-18z" stroke="#FE3E57" stroke-width="4" stroke-miterlimit="20"/><g filter="url(#filter1_f)"><path d="M1762.47 226a5.495 5.495 0 015.5 5.5 5.495 5.495 0 01-5.5 5.5 5.495 5.495 0 01-5.5-5.5 5.495 5.495 0 015.5-5.5z" fill="#34C3FF" fill-opacity=".4"/></g><path d="M1762.47 226a5.495 5.495 0 015.5 5.5 5.495 5.495 0 01-5.5 5.5 5.495 5.495 0 01-5.5-5.5 5.495 5.495 0 015.5-5.5z" stroke="#34C3FF" stroke-width="4" stroke-miterlimit="20"/><g filter="url(#filter2_f)"><path d="M1853.92 699.527l-3.8-3.957a1.28 1.28 0 01-.34-.874c0-.324.12-.637.34-.873.11-.114.24-.206.39-.268a1.135 1.135 0 01.91 0c.14.062.27.154.38.268l3.8 3.957 3.79-3.957c.11-.114.24-.205.38-.268.15-.062.3-.094.46-.094.16 0 .31.032.45.094.15.063.28.154.39.268.22.236.34.549.34.873 0 .325-.12.638-.34.874l-3.8 3.957 3.8 3.958c.22.236.34.549.34.873 0 .325-.12.638-.34.874-.11.114-.24.205-.39.268a1.1 1.1 0 01-.45.094c-.16 0-.31-.032-.46-.094a1.233 1.233 0 01-.38-.268l-3.79-3.957-3.8 3.957a1.147 1.147 0 01-1.29.268 1.152 1.152 0 01-.39-.268 1.28 1.28 0 01-.34-.874c0-.324.12-.637.34-.873l3.8-3.958z" fill="#34C3FF" fill-opacity=".4"/></g><path d="M1853.92 699.527l-3.8-3.957a1.28 1.28 0 01-.34-.874c0-.324.12-.637.34-.873.11-.114.24-.206.39-.268a1.135 1.135 0 01.91 0c.14.062.27.154.38.268l3.8 3.957 3.79-3.957c.11-.114.24-.205.38-.268.15-.062.3-.094.46-.094.16 0 .31.032.45.094.15.063.28.154.39.268.22.236.34.549.34.873 0 .325-.12.638-.34.874l-3.8 3.957 3.8 3.958c.22.236.34.549.34.873 0 .325-.12.638-.34.874-.11.114-.24.205-.39.268a1.1 1.1 0 01-.45.094c-.16 0-.31-.032-.46-.094a1.233 1.233 0 01-.38-.268l-3.79-3.957-3.8 3.957a1.147 1.147 0 01-1.29.268 1.152 1.152 0 01-.39-.268 1.28 1.28 0 01-.34-.874c0-.324.12-.637.34-.873l3.8-3.958z" fill="#34C3FF"/><g filter="url(#filter3_f)"><path d="M1860.99 445.343l5.66 5.657-5.66 5.656-5.66-5.656 5.66-5.657z" fill="#5800E4" fill-opacity=".4"/></g><path d="M1860.99 445.343l5.66 5.657-5.66 5.656-5.66-5.656 5.66-5.657z" fill="#5800E4"/><g filter="url(#filter4_f)"><path d="M1689.28 368.194l-3.8-3.957a1.29 1.29 0 01-.35-.874c0-.324.13-.637.35-.873.11-.114.24-.205.38-.267a1.135 1.135 0 01.91 0c.15.062.28.153.39.267l3.79 3.957 3.8-3.957c.1-.114.23-.205.38-.267a1.135 1.135 0 01.91 0c.14.062.27.153.38.267.22.236.35.549.35.873 0 .325-.13.638-.35.874l-3.79 3.957 3.79 3.958c.22.236.35.548.35.873 0 .325-.13.637-.35.873a1.147 1.147 0 01-1.29.267 1.022 1.022 0 01-.38-.267l-3.8-3.957-3.79 3.957c-.11.114-.24.205-.39.267a1.135 1.135 0 01-.91 0 1.214 1.214 0 01-.38-.267 1.287 1.287 0 01-.35-.873c0-.325.13-.637.35-.873l3.8-3.958z" fill="#FFB534" fill-opacity=".4"/></g><path d="M1689.28 368.194l-3.8-3.957a1.29 1.29 0 01-.35-.874c0-.324.13-.637.35-.873.11-.114.24-.205.38-.267a1.135 1.135 0 01.91 0c.15.062.28.153.39.267l3.79 3.957 3.8-3.957c.1-.114.23-.205.38-.267a1.135 1.135 0 01.91 0c.14.062.27.153.38.267.22.236.35.549.35.873 0 .325-.13.638-.35.874l-3.79 3.957 3.79 3.958c.22.236.35.548.35.873 0 .325-.13.637-.35.873a1.147 1.147 0 01-1.29.267 1.022 1.022 0 01-.38-.267l-3.8-3.957-3.79 3.957c-.11.114-.24.205-.39.267a1.135 1.135 0 01-.91 0 1.214 1.214 0 01-.38-.267 1.287 1.287 0 01-.35-.873c0-.325.13-.637.35-.873l3.8-3.958z" fill="#FFB534"/><g filter="url(#filter5_f)"><path d="M1829.57 80.55l-3.8-3.958a1.29 1.29 0 01-.35-.873c0-.325.13-.638.35-.874.11-.114.24-.206.38-.268a1.178 1.178 0 01.92 0c.14.062.27.154.38.268l3.79 3.957 3.8-3.957c.1-.114.23-.205.38-.268a1.132 1.132 0 01.91 0c.14.063.27.154.38.268.22.236.35.549.35.874 0 .324-.13.637-.35.873l-3.79 3.957 3.79 3.957c.22.236.35.549.35.874 0 .325-.13.638-.35.874a1.142 1.142 0 01-1.29.267 1.023 1.023 0 01-.38-.267l-3.8-3.957-3.79 3.957c-.11.114-.24.206-.38.268a1.176 1.176 0 01-.92 0 1.215 1.215 0 01-.38-.268 1.29 1.29 0 01-.35-.874c0-.325.13-.638.35-.874l3.8-3.956z" fill="#FE3E57" fill-opacity=".4"/></g><path d="M1829.57 80.55l-3.8-3.958a1.29 1.29 0 01-.35-.873c0-.325.13-.638.35-.874.11-.114.24-.206.38-.268a1.178 1.178 0 01.92 0c.14.062.27.154.38.268l3.79 3.957 3.8-3.957c.1-.114.23-.205.38-.268a1.132 1.132 0 01.91 0c.14.063.27.154.38.268.22.236.35.549.35.874 0 .324-.13.637-.35.873l-3.79 3.957 3.79 3.957c.22.236.35.549.35.874 0 .325-.13.638-.35.874a1.142 1.142 0 01-1.29.267 1.023 1.023 0 01-.38-.267l-3.8-3.957-3.79 3.957c-.11.114-.24.206-.38.268a1.176 1.176 0 01-.92 0 1.215 1.215 0 01-.38-.268 1.29 1.29 0 01-.35-.874c0-.325.13-.638.35-.874l3.8-3.956z" fill="#FE3E57"/><path d="M-1.198 583.803S30.085 481 47.502 442.758c17.418-38.24 41.263-67.356 82.645-99.012 41.381-31.655 60.898-103.625-8.117-190.551C53.015 66.27 2.02 41.34-10.053 32.7" stroke="#ECECEC" stroke-width="2" stroke-miterlimit="20"/><path d="M-3.412 682.815s21.104.79 47.225-97.144c26.121-97.933 38.712-125.108 58.294-160.66 19.581-35.552 40.534-57.764 68.624-77.528 28.09-19.764 74.285-77.494 5.903-178.408C108.252 68.16-15.295-8.277-35.88 26.16" stroke="#ECECEC" stroke-width="2" stroke-miterlimit="20"/><g filter="url(#filter6_f)"><path d="M101.328 227.937c7.43 0 13.453 6.198 13.453 13.844 0 7.646-6.023 13.844-13.453 13.844s-13.453-6.198-13.453-13.844c0-7.646 6.023-13.844 13.453-13.844z" fill="#FE3E57" fill-opacity=".4"/></g><path d="M101.328 227.937c7.43 0 13.453 6.198 13.453 13.844 0 7.646-6.023 13.844-13.453 13.844s-13.453-6.198-13.453-13.844c0-7.646 6.023-13.844 13.453-13.844z" stroke="#FE3E57" stroke-width="4" stroke-miterlimit="20"/><g filter="url(#filter7_f)"><path d="M130.281 485.187a4.214 4.214 0 012.987 1.244 4.23 4.23 0 011.232 2.991 4.228 4.228 0 01-4.219 4.234 4.225 4.225 0 01-4.219-4.234 4.225 4.225 0 014.22-4.235h-.001z" fill="#34C3FF" fill-opacity=".4"/></g><path d="M130.281 485.187a4.214 4.214 0 012.987 1.244 4.23 4.23 0 011.232 2.991 4.228 4.228 0 01-4.219 4.234 4.225 4.225 0 01-4.219-4.234 4.225 4.225 0 014.22-4.235h-.001z" stroke="#34C3FF" stroke-width="4" stroke-miterlimit="20"/><g filter="url(#filter8_f)"><path d="M61.04 145.164l2.915 3.047a.98.98 0 010 1.344.88.88 0 01-1.287 0l-2.914-3.046-2.914 3.046a.88.88 0 01-1.287 0 .98.98 0 010-1.344l2.915-3.047-2.915-3.046a.983.983 0 010-1.345.884.884 0 011.287 0l2.914 3.047 2.914-3.047a.884.884 0 011.287 0 .982.982 0 010 1.345l-2.915 3.046z" fill="#34C3FF" fill-opacity=".4"/></g><path d="M61.04 145.164l2.915 3.047a.98.98 0 010 1.344.88.88 0 01-1.287 0l-2.914-3.046-2.914 3.046a.88.88 0 01-1.287 0 .98.98 0 010-1.344l2.915-3.047-2.915-3.046a.983.983 0 010-1.345.884.884 0 011.287 0l2.914 3.047 2.914-3.047a.884.884 0 011.287 0 .982.982 0 010 1.345l-2.915 3.046z" fill="#34C3FF"/><g filter="url(#filter9_f)"><path d="M55.613 340.811l-4.344-4.354 4.344-4.354 4.344 4.354-4.344 4.354z" fill="#5800E4" fill-opacity=".4"/></g><path d="M55.613 340.811l-4.344-4.354 4.344-4.354 4.344 4.354-4.344 4.354z" fill="#5800E4"/><g filter="url(#filter10_f)"><path d="M185.473 384.203l2.914 3.046a.983.983 0 010 1.345.875.875 0 01-.643.278.877.877 0 01-.643-.278l-2.914-3.046-2.915 3.046a.875.875 0 01-.643.278.877.877 0 01-.643-.278.982.982 0 010-1.345l2.914-3.046-2.914-3.045a.982.982 0 010-1.345.875.875 0 01.643-.278.874.874 0 01.643.278l2.915 3.046 2.914-3.046a.875.875 0 01.643-.278.874.874 0 01.643.278.983.983 0 010 1.345l-2.914 3.045z" fill="#FFB534" fill-opacity=".4"/></g><path d="M185.473 384.203l2.914 3.046a.983.983 0 010 1.345.875.875 0 01-.643.278.877.877 0 01-.643-.278l-2.914-3.046-2.915 3.046a.875.875 0 01-.643.278.877.877 0 01-.643-.278.982.982 0 010-1.345l2.914-3.046-2.914-3.045a.982.982 0 010-1.345.875.875 0 01.643-.278.874.874 0 01.643.278l2.915 3.046 2.914-3.046a.875.875 0 01.643-.278.874.874 0 01.643.278.983.983 0 010 1.345l-2.914 3.045z" fill="#FFB534"/><g filter="url(#filter11_f)"><path d="M190.464 96.392l2.915 3.046a.982.982 0 010 1.345.885.885 0 01-1.287 0l-2.914-3.046-2.914 3.046a.885.885 0 01-1.287 0 .983.983 0 010-1.345l2.914-3.046-2.914-3.045a.982.982 0 010-1.345.876.876 0 01.994-.206.876.876 0 01.293.206l2.914 3.046 2.914-3.046a.876.876 0 01.994-.206.876.876 0 01.293.206.982.982 0 010 1.345l-2.915 3.045z" fill="#FFB534" fill-opacity=".4"/></g><path d="M190.464 96.392l2.915 3.046a.982.982 0 010 1.345.885.885 0 01-1.287 0l-2.914-3.046-2.914 3.046a.885.885 0 01-1.287 0 .983.983 0 010-1.345l2.914-3.046-2.914-3.045a.982.982 0 010-1.345.876.876 0 01.994-.206.876.876 0 01.293.206l2.914 3.046 2.914-3.046a.876.876 0 01.994-.206.876.876 0 01.293.206.982.982 0 010 1.345l-2.915 3.045z" fill="#FFB534"/><g filter="url(#filter12_f)"><path d="M79.742 621.594l2.914 3.046a.982.982 0 010 1.345.881.881 0 01-1.286 0l-2.915-3.046-2.914 3.046a.882.882 0 01-1.287 0 .983.983 0 010-1.345l2.915-3.046-2.915-3.046a.983.983 0 010-1.345.882.882 0 011.287 0l2.914 3.046 2.915-3.046a.882.882 0 011.286 0 .982.982 0 010 1.345l-2.914 3.046z" fill="#FE3E57" fill-opacity=".4"/></g><path d="M79.742 621.594l2.914 3.046a.982.982 0 010 1.345.881.881 0 01-1.286 0l-2.915-3.046-2.914 3.046a.882.882 0 01-1.287 0 .983.983 0 010-1.345l2.915-3.046-2.915-3.046a.983.983 0 010-1.345.882.882 0 011.287 0l2.914 3.046 2.915-3.046a.882.882 0 011.286 0 .982.982 0 010 1.345l-2.914 3.046z" fill="#FE3E57"/></g><defs><filter id="filter0_f" x="1779.97" y="552" width="43.031" height="44" filterUnits="userSpaceOnUse" color-interpolation-filters="sRGB"><feFlood flood-opacity="0" result="BackgroundImageFix"/><feBlend in="SourceGraphic" in2="BackgroundImageFix" result="shape"/><feGaussianBlur stdDeviation="2" result="effect1_foregroundBlur"/></filter><filter id="filter1_f" x="1752.97" y="222" width="19" height="19" filterUnits="userSpaceOnUse" color-interpolation-filters="sRGB"><feFlood flood-opacity="0" result="BackgroundImageFix"/><feBlend in="SourceGraphic" in2="BackgroundImageFix" result="shape"/><feGaussianBlur stdDeviation="2" result="effect1_foregroundBlur"/></filter><filter id="filter2_f" x="1845.78" y="689.461" width="19.635" height="20.134" filterUnits="userSpaceOnUse" color-interpolation-filters="sRGB"><feFlood flood-opacity="0" result="BackgroundImageFix"/><feBlend in="SourceGraphic" in2="BackgroundImageFix" result="shape"/><feGaussianBlur stdDeviation="2" result="effect1_foregroundBlur"/></filter><filter id="filter3_f" x="1851.33" y="441.343" width="19.315" height="19.313" filterUnits="userSpaceOnUse" color-interpolation-filters="sRGB"><feFlood flood-opacity="0" result="BackgroundImageFix"/><feBlend in="SourceGraphic" in2="BackgroundImageFix" result="shape"/><feGaussianBlur stdDeviation="2" result="effect1_foregroundBlur"/></filter><filter id="filter4_f" x="1681.13" y="358.129" width="19.635" height="20.131" filterUnits="userSpaceOnUse" color-interpolation-filters="sRGB"><feFlood flood-opacity="0" result="BackgroundImageFix"/><feBlend in="SourceGraphic" in2="BackgroundImageFix" result="shape"/><feGaussianBlur stdDeviation="2" result="effect1_foregroundBlur"/></filter><filter id="filter5_f" x="1821.42" y="70.483" width="19.635" height="20.134" filterUnits="userSpaceOnUse" color-interpolation-filters="sRGB"><feFlood flood-opacity="0" result="BackgroundImageFix"/><feBlend in="SourceGraphic" in2="BackgroundImageFix" result="shape"/><feGaussianBlur stdDeviation="2" result="effect1_foregroundBlur"/></filter><filter id="filter6_f" x="83.875" y="223.937" width="34.906" height="35.688" filterUnits="userSpaceOnUse" color-interpolation-filters="sRGB"><feFlood flood-opacity="0" result="BackgroundImageFix"/><feBlend in="SourceGraphic" in2="BackgroundImageFix" result="shape"/><feGaussianBlur stdDeviation="2" result="effect1_foregroundBlur"/></filter><filter id="filter7_f" x="122.062" y="481.187" width="16.438" height="16.469" filterUnits="userSpaceOnUse" color-interpolation-filters="sRGB"><feFlood flood-opacity="0" result="BackgroundImageFix"/><feBlend in="SourceGraphic" in2="BackgroundImageFix" result="shape"/><feGaussianBlur stdDeviation="2" result="effect1_foregroundBlur"/></filter><filter id="filter8_f" x="51.287" y="136.495" width="16.935" height="17.34" filterUnits="userSpaceOnUse" color-interpolation-filters="sRGB"><feFlood flood-opacity="0" result="BackgroundImageFix"/><feBlend in="SourceGraphic" in2="BackgroundImageFix" result="shape"/><feGaussianBlur stdDeviation="2" result="effect1_foregroundBlur"/></filter><filter id="filter9_f" x="47.269" y="328.103" width="16.688" height="16.708" filterUnits="userSpaceOnUse" color-interpolation-filters="sRGB"><feFlood flood-opacity="0" result="BackgroundImageFix"/><feBlend in="SourceGraphic" in2="BackgroundImageFix" result="shape"/><feGaussianBlur stdDeviation="2" result="effect1_foregroundBlur"/></filter><filter id="filter10_f" x="175.72" y="375.535" width="16.934" height="17.338" filterUnits="userSpaceOnUse" color-interpolation-filters="sRGB"><feFlood flood-opacity="0" result="BackgroundImageFix"/><feBlend in="SourceGraphic" in2="BackgroundImageFix" result="shape"/><feGaussianBlur stdDeviation="2" result="effect1_foregroundBlur"/></filter><filter id="filter11_f" x="180.711" y="87.723" width="16.935" height="17.339" filterUnits="userSpaceOnUse" color-interpolation-filters="sRGB"><feFlood flood-opacity="0" result="BackgroundImageFix"/><feBlend in="SourceGraphic" in2="BackgroundImageFix" result="shape"/><feGaussianBlur stdDeviation="2" result="effect1_foregroundBlur"/></filter><filter id="filter12_f" x="69.987" y="612.924" width="16.935" height="17.34" filterUnits="userSpaceOnUse" color-interpolation-filters="sRGB"><feFlood flood-opacity="0" result="BackgroundImageFix"/><feBlend in="SourceGraphic" in2="BackgroundImageFix" result="shape"/><feGaussianBlur stdDeviation="2" result="effect1_foregroundBlur"/></filter><clipPath id="clip0"><path fill="#fff" transform="translate(-37)" d="M0 0h2018v866H0z"/></clipPath></defs></svg>