<svg xmlns="http://www.w3.org/2000/svg" width="120" height="121"><path fill="#ffb534" d="M59.989 120.994c-.375 0-.748-.004-1.12-.01a.592.592 0 11.022-1.184c1.347.025 2.717.004 4.066-.063a.584.584 0 01.615.561.59.59 0 01-.557.62 60.99 60.99 0 01-3.026.076zm-5.21-.228c-.017 0-.034 0-.051-.002a60.18 60.18 0 01-4.116-.504.592.592 0 01.182-1.17c1.333.211 2.69.378 4.036.496a.59.59 0 01.533.64.589.589 0 01-.584.54zm12.298-.193a.589.589 0 01-.583-.522.59.59 0 01.514-.658c1.343-.16 2.694-.37 4.018-.624a.585.585 0 01.686.471.59.59 0 01-.467.692c-1.35.258-2.73.472-4.099.637a.687.687 0 01-.07.004zm-20.406-1.09a.591.591 0 01-.131-.015 59.165 59.165 0 01-4.008-1.074.592.592 0 01.34-1.132c1.29.394 2.613.749 3.93 1.053a.591.591 0 01-.13 1.168zm28.468-.454a.587.587 0 01-.566-.441.591.591 0 01.418-.723 58.547 58.547 0 003.893-1.18.588.588 0 01.745.37.593.593 0 01-.368.751 60.09 60.09 0 01-3.972 1.204c-.05.013-.1.02-.15.02zm-36.328-1.95a.58.58 0 01-.21-.04 59.344 59.344 0 01-3.825-1.627.594.594 0 01-.286-.786.584.584 0 01.78-.288 58.724 58.724 0 003.75 1.595.593.593 0 01-.209 1.146zm44.097-.703a.594.594 0 01-.226-1.138 58.676 58.676 0 003.69-1.71.585.585 0 01.787.263.594.594 0 01-.26.794 59.983 59.983 0 01-3.765 1.745.578.578 0 01-.226.046zm-51.552-2.782a.59.59 0 01-.282-.073 60.306 60.306 0 01-3.564-2.145.595.595 0 01-.175-.818.584.584 0 01.812-.177 58.748 58.748 0 003.493 2.103.595.595 0 01.231.804.587.587 0 01-.515.306zm58.88-.93a.585.585 0 01-.505-.29.595.595 0 01.205-.812 58.34 58.34 0 003.423-2.208.583.583 0 01.817.15.595.595 0 01-.15.824 60.286 60.286 0 01-3.491 2.253.582.582 0 01-.299.082zm-65.782-3.558a.576.576 0 01-.351-.117 60.354 60.354 0 01-3.236-2.618.595.595 0 01-.062-.834.583.583 0 01.827-.063 58.82 58.82 0 003.174 2.567c.26.196.313.567.118.828a.583.583 0 01-.47.237zm72.535-1.14a.582.582 0 01-.46-.222.595.595 0 01.094-.832 59.232 59.232 0 003.091-2.663c.24-.22.61-.204.83.037a.595.595 0 01-.037.836 61.207 61.207 0 01-3.153 2.716.585.585 0 01-.365.129zm-78.76-4.258a.585.585 0 01-.412-.17 61.372 61.372 0 01-2.849-3.04.595.595 0 01.052-.835.584.584 0 01.829.053 60.066 60.066 0 002.793 2.98.595.595 0 01-.412 1.012zm84.814-1.33a.583.583 0 01-.405-.163.596.596 0 01-.02-.837 58.74 58.74 0 002.7-3.066.584.584 0 01.827-.078c.25.21.284.582.077.834a61.01 61.01 0 01-2.754 3.127.584.584 0 01-.425.183zM12.8 97.502a.585.585 0 01-.467-.231 61.572 61.572 0 01-2.407-3.402.595.595 0 01.165-.82.583.583 0 01.813.165 60.206 60.206 0 002.361 3.337c.198.26.149.63-.109.83a.582.582 0 01-.356.122zm95.48-1.498a.584.584 0 01-.342-.111.595.595 0 01-.135-.826 59.883 59.883 0 002.258-3.412.584.584 0 01.809-.192c.275.172.36.536.19.815a61.209 61.209 0 01-2.303 3.479.584.584 0 01-.478.247zM8.27 90.607a.586.586 0 01-.511-.3 60.55 60.55 0 01-1.919-3.702.594.594 0 01.275-.79.584.584 0 01.783.278 59.98 59.98 0 001.882 3.63.594.594 0 01-.51.884zm104.331-1.646a.594.594 0 01-.519-.868 59.775 59.775 0 001.77-3.694.587.587 0 111.075.477 60.928 60.928 0 01-1.806 3.769.587.587 0 01-.52.316zM4.726 83.153a.587.587 0 01-.546-.374 61.244 61.244 0 01-1.393-3.938.587.587 0 111.119-.36c.41 1.3.87 2.599 1.366 3.861a.593.593 0 01-.546.811zm111.19-1.772a.593.593 0 01-.552-.793c.456-1.277.874-2.59 1.243-3.903a.587.587 0 111.129.322 59.944 59.944 0 01-1.268 3.982.588.588 0 01-.552.392zM2.239 75.266a.588.588 0 01-.57-.452A60.594 60.594 0 01.83 70.72a.592.592 0 01.48-.683.588.588 0 01.677.484 60.57 60.57 0 00.821 4.014.592.592 0 01-.57.731zm115.914-1.848a.592.592 0 01-.575-.713c.276-1.333.51-2.691.694-4.038a.582.582 0 01.661-.506.59.59 0 01.501.668 60.894 60.894 0 01-.708 4.118.587.587 0 01-.573.47zM.86 67.109a.589.589 0 01-.584-.532 61.512 61.512 0 01-.27-4.172.59.59 0 01.568-.609.586.586 0 01.605.573c.042 1.359.13 2.735.265 4.09a.59.59 0 01-.584.65zm118.413-1.888l-.04-.001a.59.59 0 01-.547-.63 60.984 60.984 0 00.023-7.848.59.59 0 01.549-.627.582.582 0 01.622.554 62.166 62.166 0 01-.022 8.001.588.588 0 01-.585.551zM.607 58.839H.584a.59.59 0 01-.564-.614c.05-1.39.15-2.793.294-4.169a.591.591 0 01.645-.527.59.59 0 01.522.651 61.277 61.277 0 00-.289 4.09.588.588 0 01-.585.569zm118.292-5.662a.589.589 0 01-.581-.514 60.052 60.052 0 00-.67-4.043.591.591 0 01.457-.698.585.585 0 01.692.462 60.59 60.59 0 01.684 4.124.59.59 0 01-.582.669zM1.47 50.61a.59.59 0 01-.578-.695c.24-1.367.53-2.742.861-4.089a.584.584 0 01.711-.43c.315.079.507.4.429.717a59.815 59.815 0 00-.845 4.009.588.588 0 01-.578.488zm115.794-5.54a.588.588 0 01-.565-.435 59.122 59.122 0 00-1.22-3.91.593.593 0 01.358-.756.586.586 0 01.749.361c.46 1.312.878 2.654 1.245 3.99a.592.592 0 01-.567.75zM3.454 42.581a.592.592 0 01-.559-.775 61.391 61.391 0 011.418-3.935.587.587 0 111.09.442 59.706 59.706 0 00-1.391 3.858c-.08.25-.31.41-.558.41zm111.08-5.31a.588.588 0 01-.54-.357 59.355 59.355 0 00-1.743-3.698.594.594 0 01.25-.798.585.585 0 01.792.253 60.83 60.83 0 011.779 3.773.594.594 0 01-.538.827zM6.527 34.897a.594.594 0 01-.527-.85 61.133 61.133 0 011.944-3.697.586.586 0 01.802-.218.594.594 0 01.216.808 59.747 59.747 0 00-1.907 3.625.586.586 0 01-.528.332zm104.23-4.964a.586.586 0 01-.501-.284 59.896 59.896 0 00-2.235-3.423.595.595 0 01.14-.825.583.583 0 01.817.14 60.503 60.503 0 012.28 3.491.594.594 0 01-.5.9zM10.626 27.72a.58.58 0 01-.326-.1.595.595 0 01-.16-.821 60.338 60.338 0 012.43-3.39.583.583 0 01.824-.104c.256.2.303.572.104.83a59.265 59.265 0 00-2.384 3.323.586.586 0 01-.488.262zm95.388-4.536a.584.584 0 01-.455-.217 59.993 59.993 0 00-2.68-3.083.595.595 0 01.025-.836.583.583 0 01.83.026 61.193 61.193 0 012.734 3.144.595.595 0 01-.083.832.578.578 0 01-.37.134zm-90.35-2.002a.58.58 0 01-.391-.15.595.595 0 01-.047-.836 60.964 60.964 0 012.868-3.02.584.584 0 01.83.01.595.595 0 01-.01.836 59.71 59.71 0 00-2.812 2.962.586.586 0 01-.438.198zm84.729-4.03a.582.582 0 01-.4-.157 59.487 59.487 0 00-3.075-2.684.595.595 0 01-.088-.832.584.584 0 01.825-.09 60.85 60.85 0 013.137 2.738.595.595 0 01.031.836.584.584 0 01-.43.19zM21.54 15.405a.594.594 0 01-.38-1.043 60.38 60.38 0 013.25-2.594.584.584 0 01.82.124.594.594 0 01-.123.827 59.265 59.265 0 00-3.188 2.545.58.58 0 01-.38.141zM94 11.954a.576.576 0 01-.336-.108 59.264 59.264 0 00-3.412-2.233.594.594 0 01-.201-.812.583.583 0 01.805-.202 59.625 59.625 0 013.48 2.278.594.594 0 01.145.824.585.585 0 01-.481.252zm-65.856-1.46a.585.585 0 01-.496-.274.595.595 0 01.18-.817A60.506 60.506 0 0131.4 7.284a.585.585 0 01.796.238.594.594 0 01-.235.803 58.653 58.653 0 00-3.503 2.077.58.58 0 01-.314.093zM86.96 7.689a.572.572 0 01-.267-.065 58.941 58.941 0 00-3.687-1.737.593.593 0 01-.31-.776.584.584 0 01.77-.313 59.151 59.151 0 013.761 1.773.594.594 0 01-.267 1.118zM35.353 6.55a.586.586 0 01-.535-.346.594.594 0 01.29-.784 59.494 59.494 0 013.827-1.6.585.585 0 01.755.347.594.594 0 01-.344.762 57.71 57.71 0 00-3.75 1.568.581.581 0 01-.243.053zM79.4 4.445a.588.588 0 01-.192-.033 58.09 58.09 0 00-3.886-1.203.592.592 0 01.305-1.143 59.51 59.51 0 013.964 1.227.593.593 0 01-.191 1.152zm-36.366-.796a.592.592 0 01-.167-1.159c1.32-.395 2.67-.749 4.013-1.05a.592.592 0 01.256 1.155 58.29 58.29 0 00-3.935 1.03.593.593 0 01-.167.024zm28.441-1.356a.58.58 0 01-.113-.01 58.569 58.569 0 00-4.015-.649.59.59 0 01-.51-.66.587.587 0 01.656-.514 60.97 60.97 0 014.094.66.59.59 0 01.463.695.589.589 0 01-.575.478zM51.044 1.85a.592.592 0 01-.087-1.177 59.79 59.79 0 014.118-.48.59.59 0 01.633.542.59.59 0 01-.538.637c-1.348.11-2.707.269-4.038.472a.657.657 0 01-.088.006zm12.287-.58l-.033-.002a58.989 58.989 0 00-4.065-.087h-.008a.59.59 0 01-.587-.585.59.59 0 01.58-.599 60.237 60.237 0 014.145.09.59.59 0 01.553.623.589.589 0 01-.585.56zM59.99 108.772c-1.257 0-2.526-.05-3.772-.147a.59.59 0 01-.539-.636.58.58 0 01.631-.544c1.215.095 2.453.144 3.679.144l.374-.002h.004a.59.59 0 01.587.587.59.59 0 01-.583.596zm4.477-.211a.59.59 0 01-.054-1.18 46.62 46.62 0 004.016-.56.592.592 0 01.21 1.165c-1.354.25-2.74.442-4.117.572a.65.65 0 01-.055.003zm-12.278-.435a.535.535 0 01-.096-.008 47.155 47.155 0 01-4.067-.865.59.59 0 11.292-1.146 46.59 46.59 0 003.967.844.59.59 0 01.483.68.588.588 0 01-.579.495zm20.349-1.05a.592.592 0 01-.155-1.163c1.3-.36 2.598-.78 3.86-1.253a.587.587 0 01.754.349.593.593 0 01-.347.76 47.46 47.46 0 01-3.956 1.286.58.58 0 01-.156.021zm-28.294-1.01a.583.583 0 01-.196-.033 47.7 47.7 0 01-3.858-1.568.593.593 0 01-.291-.783.584.584 0 01.777-.294 46.461 46.461 0 003.763 1.528.593.593 0 01-.195 1.15zm35.984-1.867a.593.593 0 01-.252-1.126 47.175 47.175 0 003.584-1.91.584.584 0 01.803.21.595.595 0 01-.21.81 47.737 47.737 0 01-3.674 1.959.583.583 0 01-.251.057zm-43.457-1.557a.58.58 0 01-.288-.077 48.19 48.19 0 01-3.53-2.217.595.595 0 01-.152-.822.585.585 0 01.817-.154 47.002 47.002 0 003.442 2.163.594.594 0 01-.289 1.107zm50.536-2.622a.594.594 0 01-.34-1.075 47.3 47.3 0 003.204-2.506.583.583 0 01.827.07.594.594 0 01-.068.833 48.488 48.488 0 01-3.285 2.569.58.58 0 01-.338.109zM30 97.967a.583.583 0 01-.372-.134 48.536 48.536 0 01-3.097-2.797.595.595 0 01-.01-.837.584.584 0 01.83-.01 46.756 46.756 0 003.022 2.729c.25.207.287.58.081.832a.585.585 0 01-.454.217zm63.565-3.294c-.15 0-.3-.057-.413-.172a.595.595 0 01-.004-.837 47.408 47.408 0 002.73-3.024.583.583 0 01.827-.075c.249.21.283.582.075.833a48.552 48.552 0 01-2.798 3.1.585.585 0 01-.417.175zM24.13 92.187a.582.582 0 01-.444-.206 48.691 48.691 0 01-2.575-3.29.595.595 0 01.133-.827c.264-.19.63-.13.82.134a47.62 47.62 0 002.511 3.211.594.594 0 01-.062.834.58.58 0 01-.383.144zm74.691-3.867a.582.582 0 01-.335-.106.595.595 0 01-.146-.824 47.535 47.535 0 002.173-3.454.585.585 0 01.802-.218c.28.164.378.525.216.808a48.658 48.658 0 01-2.228 3.54.585.585 0 01-.482.254zm-79.486-2.844a.586.586 0 01-.505-.288 48.783 48.783 0 01-1.971-3.689.593.593 0 01.272-.79.585.585 0 01.784.275 47.482 47.482 0 001.924 3.598.594.594 0 01-.504.894zm83.577-4.33a.594.594 0 01-.532-.84 47.296 47.296 0 001.546-3.781.586.586 0 01.752-.355c.305.111.462.45.352.758a48.593 48.593 0 01-1.585 3.877.587.587 0 01-.533.341zm-87.15-3.112a.587.587 0 01-.55-.382c-.49-1.301-.93-2.64-1.305-3.979a.593.593 0 01.404-.73.59.59 0 01.725.408 47.276 47.276 0 001.274 3.88.593.593 0 01-.549.803zm89.944-4.666a.592.592 0 01-.568-.744c.345-1.308.638-2.651.87-3.993a.588.588 0 111.156.203 48.63 48.63 0 01-.891 4.094.588.588 0 01-.567.44zm-92.18-3.293a.588.588 0 01-.576-.481 49.171 49.171 0 01-.6-4.145.59.59 0 01.524-.65.59.59 0 01.643.528c.138 1.356.335 2.717.586 4.046a.591.591 0 01-.577.702zm93.59-4.856c-.018 0-.035 0-.052-.002a.59.59 0 01-.534-.64 48.34 48.34 0 00.15-5.591.589.589 0 01.567-.61.577.577 0 01.605.573 49.296 49.296 0 01-.153 5.73.588.588 0 01-.584.54zm-94.423-3.37a.59.59 0 01-.587-.583 49.195 49.195 0 01.112-4.188c.023-.327.3-.57.626-.55a.59.59 0 01.545.632 48.685 48.685 0 00-.109 4.087.59.59 0 01-.578.601h-.009zm94.268-6.417a.59.59 0 01-.582-.522 47.51 47.51 0 00-.65-4.035.588.588 0 011.15-.24c.279 1.357.503 2.749.666 4.135a.59.59 0 01-.584.662zm-93.694-1.834a.59.59 0 01-.58-.684 49.02 49.02 0 01.825-4.108.586.586 0 01.712-.432c.314.08.506.4.428.718a47.814 47.814 0 00-.806 4.006.588.588 0 01-.58.5zm92.026-6.264a.589.589 0 01-.562-.421 47.35 47.35 0 00-1.336-3.86.593.593 0 01.328-.769.585.585 0 01.762.33 48.386 48.386 0 011.37 3.958.592.592 0 01-.562.762zm-90.047-1.762a.593.593 0 01-.555-.784 48.11 48.11 0 011.523-3.903.586.586 0 01.775-.3c.296.133.43.482.298.782a47.025 47.025 0 00-1.486 3.805.588.588 0 01-.555.4zm87.01-5.92a.587.587 0 01-.525-.325 47.283 47.283 0 00-1.98-3.567.595.595 0 01.19-.814.585.585 0 01.808.192 48.63 48.63 0 012.03 3.657.594.594 0 01-.523.858zM18.582 38.01a.594.594 0 01-.513-.878 48.608 48.608 0 012.171-3.575.585.585 0 01.815-.16c.269.182.34.55.158.82a47.675 47.675 0 00-2.117 3.489.587.587 0 01-.514.304zm79.36-5.392a.584.584 0 01-.471-.238 47.672 47.672 0 00-2.561-3.17.595.595 0 01.049-.835.582.582 0 01.828.049 48.518 48.518 0 012.625 3.25.596.596 0 01-.12.828.585.585 0 01-.35.116zm-74.776-1.47a.582.582 0 01-.368-.131.596.596 0 01-.089-.833 49.075 49.075 0 012.749-3.144.584.584 0 01.83-.016c.234.226.241.6.017.836a47.285 47.285 0 00-2.682 3.068.585.585 0 01-.457.22zm69.324-4.712a.586.586 0 01-.404-.161 46.83 46.83 0 00-3.064-2.68.596.596 0 01-.094-.832.585.585 0 01.824-.095 48.64 48.64 0 013.141 2.747c.236.224.246.6.023.836a.585.585 0 01-.426.185zm-63.637-1.253a.586.586 0 01-.442-.201.595.595 0 01.055-.835 48.253 48.253 0 013.244-2.621.584.584 0 01.82.127.595.595 0 01-.127.827 47.38 47.38 0 00-3.164 2.557.58.58 0 01-.386.146zm57.21-3.893a.581.581 0 01-.323-.098 46.746 46.746 0 00-3.476-2.107.594.594 0 01-.236-.803.585.585 0 01.797-.237 48.056 48.056 0 013.563 2.16c.27.18.344.548.166.82a.585.585 0 01-.49.265zm-50.592-.996a.594.594 0 01-.306-1.097 47.837 47.837 0 013.643-2.017.584.584 0 01.786.268.594.594 0 01-.266.793 46.387 46.387 0 00-3.553 1.968.586.586 0 01-.304.085zm43.38-2.954a.575.575 0 01-.233-.05 45.921 45.921 0 00-3.786-1.466.593.593 0 01-.37-.75.588.588 0 01.742-.373c1.312.443 2.618.948 3.883 1.504.297.13.433.48.304.78a.587.587 0 01-.54.355zm-36.027-.707a.594.594 0 01-.213-1.143 47.76 47.76 0 013.936-1.35.593.593 0 01.329 1.137 45.71 45.71 0 00-3.838 1.316.584.584 0 01-.214.04zm28.248-1.921a.576.576 0 01-.138-.016 46.404 46.404 0 00-3.98-.78.59.59 0 01-.494-.673.589.589 0 01.668-.498c1.367.206 2.74.476 4.08.8a.591.591 0 01-.136 1.167zm-20.373-.397a.588.588 0 01-.575-.476.59.59 0 01.46-.696 47.925 47.925 0 014.11-.639.59.59 0 01.647.524.59.59 0 01-.52.653 46.676 46.676 0 00-4.007.623.596.596 0 01-.115.011zm12.26-.826l-.037-.001a47.8 47.8 0 00-4.055-.078.598.598 0 01-.6-.578.59.59 0 01.572-.605 48.653 48.653 0 014.155.08c.324.02.57.3.55.626a.59.59 0 01-.586.556zM58.222 96.81h-.03a35.943 35.943 0 01-4.148-.449.59.59 0 01-.483-.68.583.583 0 01.675-.487c1.32.221 2.67.367 4.014.433a.59.59 0 01.558.62.59.59 0 01-.586.563zm4.104-.032a.59.59 0 01-.586-.553.59.59 0 01.548-.63 34.966 34.966 0 004.006-.498.591.591 0 11.21 1.164 36.026 36.026 0 01-4.178.517zm-12.19-1.321a.589.589 0 01-.163-.023 35.747 35.747 0 01-3.937-1.401.594.594 0 01-.313-.775.585.585 0 01.768-.317c1.237.524 2.518.98 3.808 1.355a.593.593 0 01-.163 1.16zm20.252-.165a.592.592 0 01-.172-1.157 34.786 34.786 0 003.785-1.416.583.583 0 01.773.304.594.594 0 01-.301.78 35.953 35.953 0 01-3.913 1.463.593.593 0 01-.172.026zm-27.814-3.035a.58.58 0 01-.288-.077 36.31 36.31 0 01-3.51-2.277.595.595 0 01-.13-.826.584.584 0 01.82-.13 35.073 35.073 0 003.397 2.203.595.595 0 01.223.806.587.587 0 01-.512.301zm35.318-.285a.586.586 0 01-.507-.293.595.595 0 01.21-.81 35.012 35.012 0 003.36-2.255.583.583 0 01.821.117.595.595 0 01-.116.828 36.027 36.027 0 01-3.472 2.331.574.574 0 01-.296.082zm-41.944-4.58a.584.584 0 01-.398-.158 36.55 36.55 0 01-2.9-3.024.594.594 0 01.061-.834.582.582 0 01.828.063 35.64 35.64 0 002.806 2.925.595.595 0 01.034.836.583.583 0 01-.431.192zm48.491-.39a.58.58 0 01-.425-.184.595.595 0 01.02-.836 35.431 35.431 0 002.762-2.97.584.584 0 01.826-.076c.249.21.283.582.075.833a36.573 36.573 0 01-2.853 3.07.583.583 0 01-.405.163zM30.6 81.13a.586.586 0 01-.486-.26 36.55 36.55 0 01-2.137-3.611.595.595 0 01.25-.799.585.585 0 01.791.252 35.546 35.546 0 002.068 3.495.594.594 0 01-.485.923zm59.09-.474a.583.583 0 01-.32-.097.596.596 0 01-.17-.82 35.216 35.216 0 002.013-3.529.585.585 0 01.788-.264c.29.146.407.501.262.794a36.68 36.68 0 01-2.08 3.648.585.585 0 01-.492.268zM26.818 73.8a.586.586 0 01-.549-.381 36.595 36.595 0 01-1.254-4.013.587.587 0 111.138-.29c.329 1.314.737 2.62 1.213 3.882a.593.593 0 01-.548.802zm66.54-.539a.59.59 0 01-.551-.793 35.179 35.179 0 001.151-3.902.587.587 0 111.143.27 36.34 36.34 0 01-1.19 4.035.588.588 0 01-.552.39zm-68.545-7.474a.588.588 0 01-.58-.514 36.872 36.872 0 01-.305-4.194.59.59 0 01.578-.601h.009a.59.59 0 01.587.583c.02 1.354.119 2.72.294 4.058a.591.591 0 01-.583.668zm70.422-.572a.59.59 0 01-.583-.658 36.17 36.17 0 00.212-5.202.59.59 0 01.568-.61c.312-.02.595.245.605.572a37.332 37.332 0 01-.22 5.373.588.588 0 01-.582.525zm-70.551-7.688a.59.59 0 01-.585-.65 36.88 36.88 0 01.65-4.156.587.587 0 111.147.252 35.357 35.357 0 00-.629 4.02.59.59 0 01-.583.534zm70.4-1.722a.588.588 0 01-.58-.504 35.435 35.435 0 00-.821-3.985.592.592 0 01.414-.725.585.585 0 01.72.417c.36 1.35.646 2.736.849 4.12a.591.591 0 01-.581.677zm-68.655-6.354a.593.593 0 01-.555-.785c.45-1.32.983-2.63 1.585-3.894.14-.294.49-.42.783-.277a.594.594 0 01.275.79 35.302 35.302 0 00-1.534 3.767.588.588 0 01-.554.4zM92.95 47.83a.587.587 0 01-.545-.373 35.207 35.207 0 00-1.711-3.683.594.594 0 01.237-.802.584.584 0 01.796.238 36.447 36.447 0 011.768 3.808.593.593 0 01-.545.812zM29.975 42a.58.58 0 01-.313-.09.595.595 0 01-.183-.817 36.677 36.677 0 012.43-3.421.584.584 0 01.825-.089.595.595 0 01.089.832 35.263 35.263 0 00-2.352 3.31.584.584 0 01-.496.276zm59.077-1.435a.584.584 0 01-.481-.252 35.58 35.58 0 00-2.506-3.192.595.595 0 01.048-.834.583.583 0 01.83.048 36.513 36.513 0 012.588 3.299.594.594 0 01-.48.93zm-53.928-4.996a.583.583 0 01-.418-.177.595.595 0 01.006-.837 36.47 36.47 0 013.14-2.77.583.583 0 01.824.102.595.595 0 01-.103.83 35.242 35.242 0 00-3.037 2.682.584.584 0 01-.412.17zm48.48-1.178a.583.583 0 01-.391-.15 35.279 35.279 0 00-3.163-2.533.594.594 0 01-.142-.823.583.583 0 01.818-.144 36.657 36.657 0 013.268 2.617.595.595 0 01.048.835.582.582 0 01-.438.198zm-42.012-3.897a.594.594 0 01-.306-1.097 36.223 36.223 0 013.685-1.973.587.587 0 01.778.292.594.594 0 01-.288.785 34.758 34.758 0 00-3.564 1.907.58.58 0 01-.305.086zm35.307-.86a.578.578 0 01-.28-.073 34.714 34.714 0 00-3.655-1.731.593.593 0 01-.326-.77.584.584 0 01.763-.33 36.069 36.069 0 013.779 1.792c.284.155.39.515.235.802a.587.587 0 01-.516.31zM49.042 27.05a.592.592 0 01-.181-1.155 35.7 35.7 0 014.038-1.061.591.591 0 11.23 1.16c-1.317.265-2.63.61-3.906 1.027a.583.583 0 01-.181.03zm20.248-.494a.568.568 0 01-.155-.021 34.685 34.685 0 00-3.95-.833.591.591 0 01.173-1.171c1.373.207 2.748.497 4.085.862a.592.592 0 01-.153 1.163zm-12.212-1.123a.59.59 0 01-.585-.544.59.59 0 01.538-.637c.976-.08 1.967-.121 2.947-.121.424-.01.818.006 1.225.02a.59.59 0 01.566.612.585.585 0 01-.605.57c-.394-.012-.77-.007-1.186-.019a35.082 35.082 0 00-2.9.119z"/></svg>